<svg id="Capa_1" data-name="Capa 1" xmlns="http://www.w3.org/2000/svg" viewBox="0 0 832.88 665.29"><defs><style>.cls-1{fill:#5a35b6;}.cls-2{fill:#01d1d1;}.cls-3{fill:#0a102a;}</style></defs><title>Logo Hatun</title><path class="cls-1" d="M232.73,445.14h0A47.17,47.17,0,0,1,185.55,398V64.74c0-48.44,51.31-79.68,94.35-57.43h0V398A47.17,47.17,0,0,1,232.73,445.14Z"/><path class="cls-2" d="M600.16,370.66h0A47.17,47.17,0,0,1,553,323.49V57h0c43-22.25,94.34,9,94.34,57.43v209.1A47.17,47.17,0,0,1,600.16,370.66Z"/><path class="cls-1" d="M355.2,514.65h0a47.17,47.17,0,0,0,47.17-47.17V357.69c0-48.44-51.3-79.68-94.34-57.43h0V467.48A47.17,47.17,0,0,0,355.2,514.65Z"/><path class="cls-2" d="M477.68,400.45h0a47.17,47.17,0,0,0,47.17-47.17V230.75h0c-43-22.25-94.34,9-94.34,57.43v65.1A47.17,47.17,0,0,0,477.68,400.45Z"/><path class="cls-3" d="M80.08,594.56v68.29H64V599.06c0-12.17-3.56-16.1-12.91-16.1-10.85,0-20.58,5-35.18,14.22v65.67H0v-131H15.9L16.09,568A121.46,121.46,0,0,1,15,585.77c13.66-9.92,26.94-16.28,40.41-16.28C71.47,569.49,80.08,578.1,80.08,594.56Z"/><path class="cls-3" d="M183,598.68v64.17H170.42l-1.87-15.15c-7.11,7.29-20.77,16.83-37.61,16.83-16.28,0-27.31-9-27.31-25.44v-9.91c0-14.22,9.35-22.46,25.25-22.46h38v-8c0-11.23-4.12-15.72-18.53-15.72-9.54,0-25.26,1.13-39.1,2.43l-1.5-11.78c12.54-2.06,30.31-4.12,44-4.12C171.92,569.49,183,576.6,183,598.68Zm-16.08,38.54V618.7l-35.18.18c-8.79.38-11.78,4.87-11.78,12.54v5.8c0,9.55,4.3,13.66,14.21,13.66C143.1,651.07,156.2,646.57,166.87,637.22Z"/><path class="cls-3" d="M234.2,637.78c0,8.79,3.37,12.16,12.35,12.16h13.84l1.87,12.16c-6,1.69-16.09,2.43-20.57,2.43-15.35,0-23.39-8.79-23.39-24.69V584.27H201.83V572.68l16.47-.94v-27h15.9v27h29v12.53h-29Z"/><path class="cls-3" d="M360.1,662.85H347.38l-1.13-13.28c-13.65,10.29-26.19,15.72-39.28,15.72-16.47,0-24.89-8.61-24.89-25.08V571.74H298v64c-.19,11.6,3.92,15.72,14.4,15.72,9.73,0,18.53-4.49,31.81-13.09V571.74h15.9Z"/><path class="cls-3" d="M469.34,594.56v68.29h-15.9V599.06c0-12.17-3.74-16.1-13.1-16.1-10.85,0-20.58,5.43-35.17,14.22v65.67h-15.9V571.74h13.46l1.13,14.4c13.85-10.66,27.31-16.65,40.78-16.65C460.74,569.49,469.34,578.1,469.34,594.56Z"/><path class="cls-3" d="M566,662.85h-3.37l-.75-15.71c-13.28,11.79-24.88,18-37.23,18C501,665.1,492.05,652,492.05,618s9-47.15,32.56-47.15c12.35,0,24.13,3.56,37.42,9.36-.75-6.55-.56-10.85-.56-17.4V531.89H566Zm-41.35-2.06c11.78,0,21.89-5.42,36.86-18V584.09c-15-6-25.08-9-36.86-9-20,0-27.88,11.41-27.88,42.84S504.59,660.79,524.61,660.79Z"/><path class="cls-3" d="M667.34,595.87v67H664l-.94-17.4c-7.67,7.86-26.38,18.53-43.59,18.53-14.78,0-23.39-8.05-23.39-22.64v-11.6c0-13.47,7.86-21.14,21.52-21.14h45.28V595.87c0-11.41-4.68-20.76-20.58-20.76a352,352,0,0,0-42.1,3l-.56-3.37c12-1.68,24.13-3.93,42.84-3.93C657.8,570.8,667.34,577.91,667.34,595.87ZM662.85,641V612.34l-45.28.74c-11,.2-16.84,6-16.84,16.66v11.6c0,11.78,6.37,18,18.71,18.14C633.66,659.86,652.55,650.88,662.85,641Z"/><path class="cls-3" d="M711.47,644.89c0,9.92,5.43,15,15,15H742.9l.56,3a136.59,136.59,0,0,1-15.9,1.13c-13.84,0-20.58-6.74-20.58-18.9V577.16H690.7V574l16.28-.93V544.79h4.49v28.26h33.3v4.11h-33.3Z"/><path class="cls-3" d="M832.88,595.87v67h-3.36l-.94-17.4C820.91,653.31,802.2,664,785,664c-14.79,0-23.39-8.05-23.39-22.64v-11.6c0-13.47,7.86-21.14,21.52-21.14h45.27V595.87c0-11.41-4.67-20.76-20.58-20.76a351.66,351.66,0,0,0-42.09,3l-.57-3.37c12-1.68,24.14-3.93,42.85-3.93C823.34,570.8,832.88,577.91,832.88,595.87ZM828.39,641V612.34l-45.27.74c-11,.2-16.84,6-16.84,16.66v11.6c0,11.78,6.36,18,18.71,18.14C799.21,659.86,818.1,650.88,828.39,641Z"/></svg>